<?xml version="1.0" encoding="UTF-8" standalone="no"?><!DOCTYPE svg PUBLIC "-//W3C//DTD SVG 1.1//EN" "http://www.w3.org/Graphics/SVG/1.1/DTD/svg11.dtd"><svg width="100%" height="100%" viewBox="0 0 5375 1880" version="1.1" xmlns="http://www.w3.org/2000/svg" xmlns:xlink="http://www.w3.org/1999/xlink" xml:space="preserve" xmlns:serif="http://www.serif.com/" style="fill-rule:evenodd;clip-rule:evenodd;stroke-linejoin:round;stroke-miterlimit:2;"><rect x="0" y="0" width="5375" height="1879.167" style="fill:#fefefe;fill-rule:nonzero;"/><path d="M829.167,416.667c12.802,7.856 19.48,12.772 24.456,27.096c5.827,12.87 9.876,14.661 22.788,19.838c3.743,1.543 7.485,3.086 11.341,4.676c4.058,1.585 8.116,3.17 12.297,4.803c4.173,1.698 8.347,3.396 12.646,5.146c13.363,5.419 26.764,10.734 40.169,16.046c8.952,3.606 17.901,7.22 26.847,10.84c20.088,8.12 40.204,16.165 60.339,24.17c8.978,3.657 17.818,7.529 26.662,11.497c14.169,5.752 18.9,4.846 33.288,0.889c17.092,-1.526 26.276,-1.599 41.406,6.771c8.594,9.896 8.594,9.896 10.156,21.875c-1.562,13.021 -1.562,13.021 -4.575,24.155c-1.584,19.023 4.479,31.583 12.143,48.746c1.426,3.331 2.853,6.662 4.322,10.093c4.572,10.643 9.228,21.247 13.891,31.85c3.025,6.983 6.044,13.968 9.058,20.955c4.445,10.307 8.892,20.614 13.357,30.913c37.741,87.199 37.741,87.199 37.741,100.476c4.641,0.387 4.641,0.387 9.375,0.781c15.425,4.557 20.142,10.401 28.125,24.219c0,15.307 -2.109,22.446 -11.719,34.375c-9.115,7.292 -9.115,7.292 -17.125,9.902c-13.671,9.039 -17.3,23.151 -22.93,37.917c-1.294,3.252 -2.589,6.504 -3.923,9.855c-4.145,10.442 -8.211,20.914 -12.272,31.389c-4.016,10.221 -8.049,20.436 -12.089,30.647c-2.671,6.758 -5.33,13.521 -7.977,20.289c-6.472,16.446 -13.169,32.71 -20.495,48.795c-1.361,2.998 -2.723,5.996 -4.126,9.085c-2.566,5.586 -5.176,11.153 -7.839,16.693c-9.476,20.602 -10.366,36.462 -5.629,58.409c1.398,11.587 -0.721,16.396 -7.21,25.977c-14.611,9.74 -20.337,9.363 -37.5,8.333c-3.239,-0.881 -6.478,-1.762 -9.814,-2.669c-13.973,-1.899 -20.891,1.298 -33.675,7.096c-4.394,1.944 -8.787,3.889 -13.314,5.892c-4.63,2.095 -9.26,4.189 -14.03,6.348c-9.453,4.101 -18.915,8.181 -28.385,12.24c-4.877,2.095 -9.754,4.189 -14.779,6.348c-15.5,6.552 -31.059,12.917 -46.68,19.173c-2.581,1.045 -5.163,2.089 -7.823,3.166c-12.759,5.118 -25.53,9.868 -38.564,14.25c-29.841,9.135 -29.841,9.135 -49.967,31.283c-1.805,4.469 -3.609,8.938 -5.469,13.542c-13.367,6.683 -27.208,6.767 -41.667,4.167c-10.417,-9.635 -10.417,-9.635 -16.667,-20.833l0,-12.5c-4.048,-0.59 -4.048,-0.59 -8.178,-1.192c-16.963,-3.987 -32.422,-10.539 -48.479,-17.232c-3.459,-1.424 -6.918,-2.849 -10.481,-4.316c-11.048,-4.555 -22.085,-9.136 -33.122,-13.717c-7.31,-3.018 -14.621,-6.035 -21.932,-9.049c-3.562,-1.471 -7.125,-2.942 -10.795,-4.458c-7.061,-2.915 -14.123,-5.827 -21.186,-8.736c-14.972,-6.182 -29.906,-12.407 -44.703,-19c-4.367,-1.923 -8.734,-3.846 -13.233,-5.827c-5.442,-2.471 -5.442,-2.471 -10.994,-4.993c-15.08,-4.637 -27.72,-1.927 -42.993,0.631c-8.903,0.391 -8.903,0.391 -21.924,-7.943c-9.593,-15.348 -9.756,-23.847 -7.812,-41.667c0.836,-2.702 1.672,-5.404 2.533,-8.188c2.023,-10.502 0.137,-15.337 -3.999,-25.127c-1.338,-3.231 -2.676,-6.461 -4.054,-9.79c-1.492,-3.468 -2.985,-6.936 -4.523,-10.508c-1.519,-3.63 -3.038,-7.26 -4.602,-11c-4.883,-11.641 -9.832,-23.253 -14.782,-34.866c-3.224,-7.659 -6.444,-15.319 -9.66,-22.982c-6.243,-14.861 -12.545,-29.694 -18.89,-44.511c-5.486,-12.846 -10.788,-25.733 -15.865,-38.745c-1.087,-2.722 -2.174,-5.443 -3.293,-8.247c-2.829,-7.11 -5.586,-14.249 -8.337,-21.39c-7.562,-12.794 -13.17,-14.427 -27.027,-18.813c-10.929,-12.751 -12.531,-19.014 -12.24,-35.938c3.906,-14.062 3.906,-14.062 11.458,-22.135c9.115,-4.427 9.115,-4.427 25.781,-4.427c0.372,-2.655 0.743,-5.31 1.126,-8.045c4.221,-17.751 11.277,-33.944 18.356,-50.727c2.29,-5.495 2.29,-5.495 4.627,-11.102c4.88,-11.699 9.785,-23.386 14.693,-35.074c4.857,-11.615 9.709,-23.232 14.559,-34.85c3.014,-7.214 6.033,-14.426 9.058,-21.636c2.802,-6.688 5.587,-13.383 8.354,-20.085c2.978,-7.149 6.031,-14.268 9.137,-21.363c1.566,-3.67 3.132,-7.34 4.745,-11.121c1.442,-3.307 2.884,-6.613 4.37,-10.02c3.035,-10.697 1.85,-15.558 -1.525,-25.978c-1.426,-15.971 -2.252,-25.507 6.25,-39.323c14.61,-9.131 26.951,-8.512 43.75,-6.51c2.771,0.849 5.543,1.697 8.398,2.572c10.501,2.026 14.436,-0.092 23.893,-4.915c18.076,-8.649 36.415,-15.764 55.208,-22.656c24.055,-8.901 47.514,-18.477 70.833,-29.167c11.527,-5.163 23.079,-10.269 34.635,-15.365c2.895,-1.291 5.79,-2.583 8.773,-3.913c21.877,-9.643 21.877,-9.643 32.116,-11.464c2.577,-0.855 5.154,-1.71 7.809,-2.591c4.377,-9.629 8.542,-19.358 12.5,-29.167c14.636,-9.757 20.27,-10.401 37.5,-8.333Z" style="fill:#5268e8;fill-rule:nonzero;"/><path d="M729.167,662.5c6.603,1.89 13.199,3.805 19.792,5.729c3.674,1.063 7.348,2.127 11.133,3.223c25.527,8.432 25.527,8.432 32.096,20.475c1.203,2.664 2.406,5.328 3.646,8.073c10.023,5.011 16.458,4.586 27.604,4.427c3.405,-0.038 6.811,-0.075 10.319,-0.114c2.61,-0.048 5.221,-0.097 7.91,-0.146c0.945,-3.18 1.891,-6.359 2.865,-9.635c6.953,-14.237 11.869,-17.249 26.302,-23.698c12.408,-3.331 24.87,-5.994 37.5,-8.333c15.584,25.324 18.079,42.337 15.625,71.94c0.106,11.869 0.106,11.869 8.187,21.24c11.216,8.033 15.097,8.131 28.532,6.559c26.269,-1.292 45.719,8.973 68.49,21.094c-1.987,6.774 -3.986,13.544 -5.99,20.312c-1.112,3.771 -2.224,7.541 -3.369,11.426c-3.141,9.928 -3.141,9.928 -7.308,18.262c-7.219,2.449 -7.219,2.449 -14.583,4.948c-4.812,2.492 -9.625,4.984 -14.583,7.552c-4.453,14.408 -5.482,23.906 -1.823,38.542c5.865,8.391 5.865,8.391 17.969,11.719c20.045,12.428 24.006,31.716 29.688,53.906l0,12.5c-6.552,3.726 -13.161,7.354 -19.792,10.938c-3.674,2.03 -7.348,4.061 -11.133,6.152c-10.742,3.743 -10.742,3.743 -19.661,0.391c-2.557,-1.644 -5.113,-3.287 -7.747,-4.98c-13.271,-3.318 -21.617,-5.355 -34.635,-0.781c-7.66,4.56 -7.66,4.56 -11.198,13.281c-0.749,19.752 -0.749,19.752 2.881,39.03c1.768,15.088 -3.32,22.258 -10.954,35.189c-2.358,4.066 -4.716,8.132 -7.145,12.321c-1.853,3.067 -3.706,6.134 -5.615,9.294c-41.345,-6.843 -41.345,-6.843 -52.148,-20.459c-4.102,-8.968 -4.102,-8.968 -7.096,-17.708c-3.079,-9.201 -3.079,-9.201 -15.755,-15.999c-15.13,-1.932 -22.165,-2.069 -34.635,7.031c-7.846,9.067 -7.846,9.067 -8.154,20.036c-3.044,10.433 -3.044,10.433 -13.037,16.26c-4.093,1.343 -8.186,2.686 -12.402,4.069c-6.107,2.111 -6.107,2.111 -12.337,4.264c-11.1,2.507 -11.1,2.507 -23.6,-1.66c-5.924,-8.936 -5.924,-8.936 -11.458,-20.052c-1.869,-3.636 -3.738,-7.272 -5.664,-11.019c-4.116,-11.752 -3.697,-15.817 0.456,-27.262c4.409,-19.861 4.409,-19.861 0.521,-39.323c-12.349,-9.08 -22.374,-8.16 -37.37,-7.91c-10.197,0.945 -10.197,0.945 -21.484,9.733c-13.75,-6.875 -27.5,-13.75 -41.667,-20.833c2.199,-21.553 6.352,-39.178 16.667,-58.333c16.532,-12.5 16.532,-12.5 29.167,-12.5c0.451,-6.678 0.774,-13.364 1.042,-20.052c0.193,-3.722 0.387,-7.444 0.586,-11.279c-0.663,-10.815 -0.663,-10.815 -8.984,-17.676c-8.891,-5.552 -8.891,-5.552 -18.213,-6.901c-7.764,-2.425 -7.764,-2.425 -12.272,-10.449c-1.004,-3.282 -2.009,-6.563 -3.044,-9.945c-1.058,-3.25 -2.116,-6.499 -3.206,-9.847c-1.931,-10.739 -2.021,-16.384 2.425,-26.351c20.695,-14.967 41.809,-17.712 66.602,-16.455c12.383,-0.312 19.786,-5.037 29.232,-12.712c5.736,-11.472 4.676,-20.608 4.167,-33.333c-0.908,-2.61 -1.815,-5.221 -2.751,-7.91c-1.998,-12.353 2.374,-17.989 8.74,-28.548c1.971,-3.33 3.942,-6.66 5.973,-10.091c1.552,-2.514 3.104,-5.027 4.704,-7.617Z" style="fill:#ec7837;fill-rule:nonzero;"/><path d="M3266.667,783.333c177.83,0 177.83,0 218.376,34.717c20.989,22.02 24.368,41.528 25.114,71.794c-0.971,33.729 -6.906,56.273 -30.99,80.99c-12.186,8.855 -24.71,17.047 -37.5,25c7.898,11.199 15.798,22.396 23.698,33.594c3.315,4.701 3.315,4.701 6.698,9.497c2.189,3.102 4.377,6.204 6.632,9.399c2.167,3.078 4.333,6.157 6.565,9.328c4.184,5.888 8.416,11.742 12.699,17.558c14.541,19.782 14.541,19.782 14.541,28.957c-10.775,2.246 -10.775,2.246 -25,0c-11.054,-10.662 -19.139,-23.18 -27.604,-35.938c-2.331,-3.368 -4.662,-6.735 -7.064,-10.205c-9.557,-13.863 -18.77,-27.515 -26.809,-42.326c-8.394,-12.731 -8.394,-12.731 -22.723,-14.752c-5.15,-0.044 -10.299,-0.087 -15.605,-0.132c-2.751,-0.057 -5.502,-0.114 -8.336,-0.173c-8.748,-0.155 -17.485,-0.14 -26.234,-0.12c-5.946,-0.076 -11.893,-0.162 -17.839,-0.26c-14.546,-0.237 -29.066,-0.243 -43.62,-0.26l0,104.167l-25,0l0,-320.833Z" style="fill:#fbfcfe;fill-rule:nonzero;"/><path d="M4796.094,783.073c6.059,0.129 6.059,0.129 12.24,0.26c2.218,4.906 2.218,4.906 4.481,9.911c7.266,16.058 14.542,32.11 21.821,48.162c1.352,2.984 2.704,5.969 4.098,9.044c17.743,39.139 35.685,78.179 53.878,117.112c1.809,3.878 3.619,7.756 5.483,11.751c8.945,19.17 17.913,38.328 26.92,57.469c3.29,7.042 6.579,14.084 9.866,21.127c1.533,3.236 3.067,6.472 4.647,9.807c10.474,22.53 10.474,22.53 10.474,36.45l-25,0c-6.275,-13.704 -12.516,-27.423 -18.75,-41.146c-1.789,-3.905 -3.577,-7.81 -5.42,-11.833c-1.692,-3.733 -3.384,-7.466 -5.127,-11.312c-2.357,-5.171 -2.357,-5.171 -4.761,-10.447c-3.442,-8.596 -3.442,-8.596 -3.442,-16.929l-187.5,0c-4.125,12.375 -8.25,24.75 -12.5,37.5c-4.262,9.882 -8.674,19.701 -13.281,29.427c-2.208,4.689 -4.415,9.378 -6.689,14.209c-1.66,3.475 -3.319,6.95 -5.029,10.531l-25,0c8.04,-25.849 17.742,-50.251 29.281,-74.723c1.606,-3.45 3.212,-6.9 4.867,-10.455c5.178,-11.113 10.385,-22.212 15.592,-33.311c3.574,-7.654 7.146,-15.309 10.716,-22.965c5.348,-11.468 10.698,-22.936 16.057,-34.399c10.524,-22.517 20.984,-45.061 31.349,-67.651c1.184,-2.578 2.367,-5.155 3.587,-7.811c5.373,-11.706 10.737,-23.417 16.09,-35.132c1.837,-3.999 3.674,-7.998 5.567,-12.119c1.569,-3.429 3.138,-6.859 4.755,-10.392c6.111,-12.372 5.901,-11.831 20.734,-12.134Z" style="fill:#5268e8;fill-rule:nonzero;"/><path d="M2296.094,783.073c6.059,0.129 6.059,0.129 12.24,0.26c2.218,4.906 2.218,4.906 4.481,9.911c7.266,16.058 14.542,32.11 21.821,48.162c1.352,2.984 2.704,5.969 4.098,9.044c17.743,39.139 35.685,78.179 53.878,117.112c1.809,3.878 3.619,7.756 5.483,11.751c8.945,19.17 17.913,38.328 26.92,57.469c3.29,7.042 6.579,14.084 9.866,21.127c1.533,3.236 3.067,6.472 4.647,9.807c10.474,22.53 10.474,22.53 10.474,36.45l-25,0c-6.275,-13.704 -12.516,-27.423 -18.75,-41.146c-1.789,-3.905 -3.577,-7.81 -5.42,-11.833c-1.692,-3.733 -3.384,-7.466 -5.127,-11.312c-2.357,-5.171 -2.357,-5.171 -4.761,-10.447c-3.442,-8.596 -3.442,-8.596 -3.442,-16.929l-187.5,0c-4.125,12.375 -8.25,24.75 -12.5,37.5c-4.262,9.882 -8.674,19.701 -13.281,29.427c-2.208,4.689 -4.415,9.378 -6.689,14.209c-1.66,3.475 -3.319,6.95 -5.029,10.531l-25,0c8.04,-25.849 17.742,-50.251 29.281,-74.723c1.606,-3.45 3.212,-6.9 4.867,-10.455c5.178,-11.113 10.385,-22.212 15.592,-33.311c3.574,-7.654 7.146,-15.309 10.716,-22.965c5.348,-11.468 10.698,-22.936 16.057,-34.399c10.524,-22.517 20.984,-45.061 31.349,-67.651c1.184,-2.578 2.367,-5.155 3.587,-7.811c5.373,-11.706 10.737,-23.417 16.09,-35.132c1.837,-3.999 3.674,-7.998 5.567,-12.119c1.569,-3.429 3.138,-6.859 4.755,-10.392c6.111,-12.372 5.901,-11.831 20.734,-12.134Z" style="fill:#5268e8;fill-rule:nonzero;"/><path d="M4195.833,783.333l20.833,0c7.129,8.04 7.129,8.04 14.062,20.312c1.344,2.322 2.688,4.645 4.072,7.037c3.202,5.553 6.366,11.128 9.504,16.718c6.616,11.734 13.368,23.384 20.131,35.034c13.491,23.263 26.903,46.57 40.295,69.889c11.488,19.979 23.035,39.923 34.591,59.863c1.943,3.355 3.887,6.71 5.889,10.166c4.373,7.549 8.747,15.098 13.122,22.646c15.835,-23.119 30.445,-46.44 43.75,-71.094c24.15,-44.123 49.638,-87.445 75.077,-130.833c7.704,-13.196 15.294,-26.452 22.839,-39.74l20.833,0l0,320.833l-20.833,0c-1.375,-88 -2.75,-176 -4.167,-266.667c-9.711,17.016 -19.422,34.031 -29.427,51.562c-33.073,57.913 -66.358,115.702 -99.74,173.438c-10.249,-1.529 -15.308,-2.526 -22.039,-10.651c-1.541,-2.791 -3.082,-5.582 -4.67,-8.457c-1.779,-3.152 -3.558,-6.304 -5.39,-9.551c-1.868,-3.433 -3.736,-6.866 -5.661,-10.403c-4.067,-7.255 -8.137,-14.508 -12.207,-21.761c-2.072,-3.734 -4.144,-7.467 -6.278,-11.314c-9.768,-17.486 -19.868,-34.776 -29.952,-52.081c-18.646,-32.117 -37.043,-64.369 -55.469,-96.615c-1.375,86.625 -2.75,173.25 -4.167,262.5l-25,0l0,-320.833Z" style="fill:#5469e8;fill-rule:nonzero;"/><path d="M3266.667,783.333c177.83,0 177.83,0 218.376,34.717c20.989,22.02 24.368,41.528 25.114,71.794c-0.971,33.729 -6.906,56.273 -30.99,80.99c-12.186,8.855 -24.71,17.047 -37.5,25c7.898,11.199 15.798,22.396 23.698,33.594c3.315,4.701 3.315,4.701 6.698,9.497c2.189,3.102 4.377,6.204 6.632,9.399c2.167,3.078 4.333,6.157 6.565,9.328c4.184,5.888 8.416,11.742 12.699,17.558c14.541,19.782 14.541,19.782 14.541,28.957c-10.775,2.246 -10.775,2.246 -25,0c-11.054,-10.662 -19.139,-23.18 -27.604,-35.938c-2.331,-3.368 -4.662,-6.735 -7.064,-10.205c-9.557,-13.863 -18.77,-27.515 -26.809,-42.326c-8.394,-12.731 -8.394,-12.731 -22.723,-14.752c-5.15,-0.044 -10.299,-0.087 -15.605,-0.132c-2.751,-0.057 -5.502,-0.114 -8.336,-0.173c-8.748,-0.155 -17.485,-0.14 -26.234,-0.12c-5.946,-0.076 -11.893,-0.162 -17.839,-0.26c-14.546,-0.237 -29.066,-0.243 -43.62,-0.26l0,104.167l-25,0l0,-320.833Zm25,20.833l0,175c19.852,0.344 39.703,0.688 60.156,1.042c6.184,0.152 12.369,0.303 18.741,0.46c36.904,0.308 64.739,-2.283 93.499,-26.501c2.234,-2.75 4.469,-5.5 6.771,-8.333c3.48,-4.125 3.48,-4.125 7.031,-8.333c13.626,-20.764 12.046,-46.9 9.635,-70.833c-6.961,-21.36 -21.983,-39.244 -41.667,-50c-34.946,-12.148 -68.536,-14.119 -105.208,-13.281c-16.156,0.258 -32.312,0.516 -48.958,0.781Z" style="fill:#556be8;fill-rule:nonzero;"/><path d="M1758.333,783.333l25,0l0,150l212.5,0l0,-150l25,0l0,320.833l-25,0l0,-154.167l-212.5,0l0,154.167l-25,0l0,-320.833Z" style="fill:#556ae8;fill-rule:nonzero;"/><path d="M3079.167,783.333l25,0c0.319,30.093 0.537,60.186 0.687,90.281c0.063,10.224 0.148,20.448 0.256,30.672c0.153,14.75 0.223,29.498 0.278,44.248c0.065,4.524 0.129,9.049 0.196,13.71c0.009,41.753 -6.773,80.255 -37.11,111.046c-28.339,25.93 -53.757,32.973 -91.39,32.438c-5.1,0.073 -5.1,0.073 -10.303,0.146c-34.158,-0.164 -62.282,-11.795 -87.614,-35.042c-25.571,-36.936 -31.015,-73.473 -30.387,-117.725c0.018,-4.756 0.035,-9.512 0.054,-14.412c0.07,-15.07 0.226,-30.138 0.386,-45.207c0.063,-10.267 0.12,-20.535 0.171,-30.802c0.137,-25.063 0.346,-50.125 0.61,-75.187l20.833,0c0.015,2.508 0.03,5.016 0.046,7.601c0.175,26.299 0.465,52.594 0.819,78.891c0.117,9.791 0.206,19.583 0.264,29.374c0.09,14.141 0.285,28.278 0.498,42.418c0.005,4.32 0.01,8.641 0.016,13.092c0.685,34.761 7.579,68.943 28.826,97.373c27.083,25.193 51.826,24.923 87.842,24.105c24.731,-1.956 40.582,-7.296 60.075,-23.324c20.069,-24.656 26.105,-48.093 26.637,-79.286c0.083,-4.336 0.166,-8.673 0.252,-13.14c0.07,-4.632 0.139,-9.264 0.211,-14.036c0.087,-4.78 0.173,-9.559 0.262,-14.484c0.272,-15.24 0.518,-30.481 0.763,-45.721c0.18,-10.343 0.362,-20.687 0.545,-31.03c0.446,-25.333 0.87,-50.667 1.278,-76.001Z" style="fill:#5268e8;fill-rule:nonzero;"/><path d="M1116.667,608.333c13.767,6.884 16.389,22.089 21.794,35.807c1.306,3.248 2.613,6.496 3.958,9.842c4.203,10.467 8.367,20.95 12.529,31.434c4.08,10.202 8.168,20.401 12.257,30.599c2.711,6.769 5.416,13.539 8.116,20.312c6.794,17.024 13.671,34.007 20.717,50.928c1.358,3.264 2.717,6.528 4.116,9.891c2.586,6.195 5.184,12.384 7.797,18.568c8.715,20.874 8.715,20.874 8.715,30.118c-20.386,-2.387 -37.228,-8.828 -55.55,-17.66c-2.822,-1.342 -5.643,-2.684 -8.551,-4.066c-5.922,-2.831 -11.836,-5.679 -17.742,-8.543c-9.057,-4.374 -18.157,-8.649 -27.263,-12.92c-5.762,-2.769 -11.521,-5.544 -17.277,-8.325c-2.725,-1.268 -5.451,-2.536 -8.259,-3.842c-18.699,-9.231 -18.699,-9.231 -22.631,-19.142c-1.838,-15.31 4.935,-28.994 10.235,-43.129c1.797,-4.944 1.797,-4.944 3.631,-9.988c2.537,-6.952 5.095,-13.897 7.673,-20.834c3.959,-10.655 7.857,-21.33 11.743,-32.012c2.47,-6.748 4.944,-13.494 7.422,-20.239c1.176,-3.207 2.353,-6.415 3.565,-9.719c8.345,-22.422 8.345,-22.422 13.004,-27.081Z" style="fill:#f7f8fd;fill-rule:nonzero;"/><path d="M720.833,1112.5c10.108,21.2 20.195,42.41 30.263,63.629c3.43,7.221 6.865,14.44 10.307,21.655c4.938,10.356 9.855,20.722 14.768,31.089c1.549,3.238 3.099,6.476 4.695,9.812c10.8,22.865 10.8,22.865 10.8,32.147c-22.801,-2.527 -41.63,-10.415 -62.435,-19.482c-3.565,-1.527 -7.13,-3.054 -10.803,-4.627c-11.362,-4.872 -22.708,-9.781 -34.053,-14.693c-11.289,-4.86 -22.581,-9.711 -33.875,-14.559c-7.007,-3.011 -14.01,-6.029 -21.01,-9.058c-20.831,-8.987 -41.783,-17.423 -63.029,-25.385c-8.128,-3.863 -8.128,-3.863 -12.294,-12.196c30.386,-14.422 61.658,-25.422 93.49,-36.198c9.718,-3.31 19.435,-6.625 29.15,-9.945c6.384,-2.165 6.384,-2.165 12.898,-4.373c22.046,-7.818 22.046,-7.818 31.129,-7.818Z" style="fill:#f7f8fd;fill-rule:nonzero;"/><path d="M791.667,475c-6.09,19.652 -14.008,38.059 -22.819,56.608c-1.375,2.924 -2.751,5.848 -4.168,8.861c-4.359,9.26 -8.738,18.51 -13.117,27.76c-2.974,6.309 -5.947,12.619 -8.919,18.929c-7.255,15.399 -14.528,30.789 -21.81,46.175c-36.14,-6.703 -69.981,-19.299 -104.427,-31.771c-6.051,-2.172 -12.103,-4.342 -18.156,-6.51c-14.703,-5.272 -29.396,-10.571 -44.084,-15.885c2.062,-6.188 2.062,-6.188 4.167,-12.5c10.938,-5.192 10.938,-5.192 25,-10.156c16.287,-5.937 32.395,-11.832 48.177,-19.01c37.041,-16.776 74.662,-31.777 112.892,-45.603c46.086,-16.897 46.086,-16.897 47.265,-16.897Z" style="fill:#f8f9fe;fill-rule:nonzero;"/><path d="M912.5,1112.5c35.328,10.111 69.992,22.049 104.688,34.115c5.631,1.951 11.263,3.902 16.895,5.851c13.642,4.725 27.281,9.46 40.918,14.201l0,12.5c-11.968,4.987 -23.936,9.973 -35.905,14.958c-8.444,3.52 -16.887,7.045 -25.326,10.579c-32.528,13.609 -65.164,26.948 -97.817,40.255c-3.787,1.546 -7.575,3.091 -11.477,4.683c-3.629,1.478 -7.258,2.957 -10.997,4.48c-8.981,3.728 -17.856,7.63 -26.731,11.601c-12.581,5.111 -12.581,5.111 -25.081,5.111c5.803,-18.699 13.161,-35.855 21.761,-53.434c1.273,-2.617 2.546,-5.234 3.858,-7.93c4.033,-8.285 8.086,-16.56 12.141,-24.833c4.068,-8.32 8.131,-16.641 12.186,-24.967c3.665,-7.523 7.344,-15.038 11.025,-22.554c5.924,-11.985 5.924,-11.985 9.862,-24.614Z" style="fill:#fafafe;fill-rule:nonzero;"/><path d="M1608.333,804.167c7.082,5.379 14.071,10.891 20.833,16.667c-1.562,8.073 -1.562,8.073 -4.167,16.667c-2.75,1.375 -5.5,2.75 -8.333,4.167c-9.049,-4.769 -9.049,-4.769 -19.792,-11.719c-35.357,-22.83 -67.88,-25.568 -109.375,-21.615c-38.292,9.562 -68.172,29.413 -88.916,63.281c-18.915,36.618 -22.005,78.188 -11.328,118.018c16.451,41.102 39.079,65.597 79.541,83.87c34.739,13.417 78.195,11.073 112.484,-2.669c14.506,-7.354 28.169,-15.774 41.553,-25c2.75,2.75 5.5,5.5 8.333,8.333c-0.358,8.04 -0.358,8.04 -4.167,16.667c-8.496,6.803 -8.496,6.803 -19.271,13.021c-3.491,2.073 -6.982,4.146 -10.579,6.283c-26.015,12.542 -49.862,15.452 -78.223,15.332c-3.166,0.067 -6.333,0.134 -9.595,0.203c-41.339,0.035 -81.967,-18.3 -111.564,-47.209c-29.686,-35.623 -44.949,-74.096 -42.79,-120.557c4.894,-53.167 22.866,-90.555 64.469,-125.472c57.198,-40.356 130.025,-41.307 190.885,-8.268Z" style="fill:#556be8;fill-rule:nonzero;"/><path d="M1216.667,900c-8.937,28.325 -19.613,55.684 -31.038,83.089c-1.74,4.201 -3.479,8.402 -5.271,12.731c-5.506,13.291 -11.03,26.574 -16.555,39.857c-3.758,9.063 -7.515,18.126 -11.271,27.189c-9.163,22.106 -18.341,44.205 -27.531,66.3l-12.5,0c-1.197,-3.36 -2.393,-6.719 -3.627,-10.181c-4.494,-12.612 -8.991,-25.223 -13.489,-37.834c-1.936,-5.43 -3.872,-10.861 -5.806,-16.292c-2.801,-7.862 -5.605,-15.723 -8.41,-23.584c-1.776,-4.995 -3.552,-9.99 -5.381,-15.137c-4.068,-11.201 -8.369,-22.247 -12.815,-33.301c-4.639,-13.672 -4.639,-13.672 -0.472,-26.172c10.259,-5.824 20.267,-10.9 30.957,-15.804c3.109,-1.462 6.218,-2.924 9.421,-4.43c6.583,-3.084 13.175,-6.148 19.776,-9.192c10.111,-4.667 20.187,-9.404 30.259,-14.153c6.395,-2.985 12.791,-5.967 19.189,-8.944c3.021,-1.419 6.042,-2.838 9.155,-4.3c12.506,-5.736 21.482,-9.844 35.409,-9.844Z" style="fill:#fafbfe;fill-rule:nonzero;"/><path d="M516.667,608.333c18.11,35.401 31.792,72.819 45.312,110.156c1.344,3.601 2.688,7.203 4.072,10.913c1.224,3.44 2.447,6.88 3.708,10.425c1.111,3.064 2.222,6.128 3.367,9.284c2.43,11.959 2.205,18.63 -2.293,30.055c-10.786,7.139 -10.786,7.139 -25.049,13.444c-2.524,1.143 -5.049,2.286 -7.65,3.464c-8.08,3.64 -16.203,7.169 -24.333,10.696c-5.393,2.402 -10.783,4.81 -16.17,7.227c-9.976,4.472 -19.969,8.89 -29.984,13.275c-9.176,4.125 -18.244,8.498 -27.199,13.082c-11.282,5.479 -11.282,5.479 -19.616,5.479c2.509,-14.309 6.155,-26.984 11.709,-40.396c1.544,-3.755 3.089,-7.51 4.68,-11.379c1.671,-4.007 3.342,-8.013 5.064,-12.141c1.722,-4.165 3.443,-8.331 5.217,-12.623c3.641,-8.798 7.291,-17.592 10.949,-26.382c5.581,-13.414 11.132,-26.84 16.679,-40.268c3.546,-8.559 7.095,-17.118 10.645,-25.675c2.481,-5.997 2.481,-5.997 5.012,-12.115c8.008,-19.213 16.247,-38.065 25.88,-56.521Z" style="fill:#f8f9fe;fill-rule:nonzero;"/><path d="M4791.667,812.5c14.038,7.019 17.434,22.938 23.438,36.8c1.448,3.284 2.896,6.568 4.388,9.951c4.639,10.534 9.241,21.083 13.841,31.634c4.608,10.503 9.223,21.002 13.841,31.5c2.874,6.54 5.74,13.083 8.598,19.63c1.307,2.988 2.614,5.977 3.961,9.056c1.711,3.923 1.711,3.923 3.457,7.925c2.491,5.495 5.212,10.888 8.077,16.198c3.733,8.14 3.733,8.14 3.733,20.64l-162.5,0c2.893,-14.465 4.783,-23.645 10.627,-36.321c1.308,-2.864 2.615,-5.729 3.962,-8.68c1.411,-3.03 2.821,-6.06 4.275,-9.182c2.181,-4.752 2.181,-4.752 4.406,-9.6c4.636,-10.086 9.302,-20.157 13.969,-30.228c3.124,-6.789 6.247,-13.579 9.367,-20.369c24.323,-52.847 24.323,-52.847 32.56,-68.953Z" style="fill:#f7f8fd;fill-rule:nonzero;"/><path d="M2291.667,812.5c14.038,7.019 17.434,22.938 23.438,36.8c1.448,3.284 2.896,6.568 4.388,9.951c4.639,10.534 9.241,21.083 13.841,31.634c4.608,10.503 9.223,21.002 13.841,31.5c2.874,6.54 5.74,13.083 8.598,19.63c1.307,2.988 2.614,5.977 3.961,9.056c1.711,3.923 1.711,3.923 3.457,7.925c2.491,5.495 5.212,10.888 8.077,16.198c3.733,8.14 3.733,8.14 3.733,20.64l-162.5,0c2.893,-14.465 4.783,-23.645 10.627,-36.321c1.308,-2.864 2.615,-5.729 3.962,-8.68c1.411,-3.03 2.821,-6.06 4.275,-9.182c2.181,-4.752 2.181,-4.752 4.406,-9.6c4.636,-10.086 9.302,-20.157 13.969,-30.228c3.124,-6.789 6.247,-13.579 9.367,-20.369c24.323,-52.847 24.323,-52.847 32.56,-68.953Z" style="fill:#f7f8fd;fill-rule:nonzero;"/><path d="M845.833,475c25.378,8.085 49.977,17.291 74.479,27.718c3.372,1.423 6.745,2.845 10.219,4.311c10.662,4.502 21.315,9.023 31.968,13.544c7.139,3.015 14.279,6.029 21.419,9.041c6.923,2.926 13.846,5.853 20.768,8.781c3.152,1.333 6.304,2.666 9.552,4.039c21.748,9.233 43.364,18.742 64.927,28.399c-12.649,13.89 -26.792,18.449 -44.271,24.219c-6.359,2.157 -12.718,4.316 -19.076,6.478c-3.279,1.105 -6.558,2.21 -9.937,3.349c-10.066,3.46 -20.054,7.087 -30.037,10.779c-4.797,1.758 -4.797,1.758 -9.69,3.551c-6.163,2.264 -12.317,4.553 -18.461,6.871c-21.294,7.721 -21.294,7.721 -35.195,3.087c-6.193,-10.786 -6.193,-10.786 -12.63,-25.049c-1.155,-2.524 -2.31,-5.049 -3.5,-7.65c-3.692,-8.093 -7.324,-16.211 -10.953,-24.333c-3.643,-8.04 -7.297,-16.075 -10.953,-24.11c-3.332,-7.339 -6.635,-14.691 -9.937,-22.044c-4.176,-9.091 -8.595,-18.074 -13.232,-26.939c-5.461,-11.543 -5.461,-11.543 -5.461,-24.043Z" style="fill:#fbfbfe;fill-rule:nonzero;"/><path d="M3595.833,783.333l25,0c32.257,69.084 63.601,138.533 94.393,208.28c1.387,3.136 2.773,6.272 4.202,9.503c2.595,5.87 5.185,11.741 7.768,17.616c7.169,16.214 14.75,32.142 22.803,47.934c2.01,-4.586 4.02,-9.172 6.091,-13.897c39.416,-89.911 78.893,-179.791 118.909,-269.437l25,0c-7.943,25.315 -17.288,49.425 -28.369,73.519c-1.514,3.335 -3.027,6.67 -4.587,10.106c-3.224,7.101 -6.456,14.199 -9.694,21.293c-8.466,18.551 -16.871,37.129 -25.269,55.711c-1.672,3.697 -3.343,7.394 -5.065,11.203c-22.257,49.344 -43.489,99.123 -64.515,149.002l-25,0c-20.57,-39.883 -38.934,-80.569 -57.031,-121.615c-2.932,-6.63 -5.865,-13.26 -8.798,-19.889c-5.855,-13.237 -11.702,-26.477 -17.545,-39.72c-6.408,-14.52 -12.841,-29.028 -19.291,-43.529c-5.285,-11.884 -10.553,-23.775 -15.824,-35.665c-1.892,-4.244 -3.783,-8.488 -5.732,-12.861c-1.712,-3.877 -3.425,-7.754 -5.189,-11.748c-1.474,-3.322 -2.948,-6.644 -4.467,-10.067c-3.405,-8.53 -5.809,-16.784 -7.789,-25.741Z" style="fill:#5369e8;fill-rule:nonzero;"/><path d="M420.833,900c30.697,9.295 59.25,21.825 88.165,35.67c7.743,3.689 15.524,7.288 23.309,10.888c4.893,2.334 9.786,4.667 14.827,7.072c6.679,3.154 6.679,3.154 13.493,6.371c10.205,6.666 10.205,6.666 13.207,14.437c2.014,15.391 -4.916,29.134 -10.278,43.336c-1.208,3.306 -2.416,6.612 -3.661,10.018c-3.865,10.544 -7.791,21.064 -11.72,31.584c-2.633,7.149 -5.261,14.3 -7.886,21.452c-6.439,17.52 -12.934,35.018 -19.458,52.507l-8.333,0c-1,-2.523 -2.001,-5.045 -3.031,-7.645c-17.255,-43.457 -34.559,-86.887 -52.535,-130.051c-1.145,-2.752 -2.291,-5.505 -3.471,-8.341c-5.631,-13.522 -11.283,-27.036 -16.96,-40.539c-2.045,-4.897 -4.09,-9.795 -6.197,-14.841c-1.83,-4.356 -3.659,-8.711 -5.544,-13.199c-3.929,-10.385 -3.929,-10.385 -3.929,-18.718Z" style="fill:#fcfcfe;fill-rule:nonzero;"/><path d="M1041.667,987.5c4.597,9.308 4.597,9.308 8.838,21.582c1.576,4.479 3.153,8.959 4.777,13.574c1.609,4.727 3.217,9.453 4.875,14.323c3.206,9.191 6.412,18.381 9.619,27.572c1.546,4.516 3.092,9.031 4.685,13.684c5.885,16.797 12.281,33.382 18.802,49.941c2.571,9.324 2.571,9.324 -1.596,21.824c-32.609,-5.842 -64.11,-17.806 -94.922,-29.818c-7.674,-2.918 -15.418,-5.65 -23.177,-8.333c-4.941,-1.762 -9.883,-3.523 -14.974,-5.339c-4.678,-1.627 -9.356,-3.255 -14.176,-4.932c-11.084,-5.745 -11.084,-5.745 -15.283,-13.428c0.069,-18.932 10.488,-35.322 20.866,-50.651c12.76,-7.292 12.76,-7.292 25,-12.5c2.492,-4.039 4.984,-8.078 7.552,-12.24c13.653,-19.115 35.694,-33.067 59.115,-25.26Z" style="fill:#f7f8fd;fill-rule:nonzero;"/><path d="M595.833,983.333c31.789,7.67 48.849,17.92 66.667,45.833c6.059,2.578 6.059,2.578 12.24,5.208c19.239,10.994 26.026,28.598 33.594,48.958l0,12.5c-81.25,27.083 -81.25,27.083 -162.5,54.167c-5.877,-17.098 -2.288,-27.166 4.147,-43.522c5.023,-12.772 9.771,-25.634 14.521,-38.509c1.84,-4.968 3.679,-9.937 5.575,-15.055c1.883,-5.086 3.765,-10.173 5.705,-15.413c1.95,-5.268 3.901,-10.536 5.851,-15.804c4.734,-12.787 9.468,-25.575 14.201,-38.363Z" style="fill:#f9fafe;fill-rule:nonzero;"/><path d="M587.5,795.833c9.158,19.079 14.56,32.54 12.5,54.167c-1.375,1.375 -2.75,2.75 -4.167,4.167c1.535,13.3 3.323,26.135 6.917,39.046c1.799,13.918 -1.502,22.207 -6.657,35.173c-1.584,4.066 -3.169,8.132 -4.801,12.321c-1.251,3.067 -2.503,6.134 -3.792,9.294c-30.634,-9.309 -59.26,-21.698 -88.165,-35.441c-7.739,-3.655 -15.522,-7.201 -23.309,-10.75c-4.893,-2.32 -9.786,-4.641 -14.827,-7.031c-4.453,-2.081 -8.905,-4.161 -13.493,-6.305c-10.205,-7.139 -10.205,-7.139 -13.77,-18.396c-0.199,-3.16 -0.397,-6.32 -0.602,-9.576c16.078,-7.491 32.16,-14.976 48.243,-22.456c5.46,-2.54 10.919,-5.082 16.378,-7.625c7.89,-3.676 15.783,-7.346 23.677,-11.016c4.735,-2.204 9.47,-4.408 14.348,-6.678c41.442,-18.891 41.442,-18.891 51.521,-18.891Z" style="fill:#f8f9fe;fill-rule:nonzero;"/><path d="M891.667,1100c-2.387,20.386 -8.828,37.228 -17.66,55.55c-1.342,2.822 -2.684,5.643 -4.066,8.551c-2.831,5.922 -5.679,11.836 -8.543,17.742c-4.374,9.057 -8.649,18.157 -12.92,27.263c-2.769,5.762 -5.544,11.521 -8.325,17.277c-1.268,2.725 -2.536,5.451 -3.842,8.259c-9.212,18.66 -9.212,18.66 -20.591,23.344c-3.656,0.172 -3.656,0.172 -7.386,0.347c-7.206,-15.711 -14.41,-31.423 -21.615,-47.135c-2.011,-4.385 -4.023,-8.771 -6.095,-13.289c-4.041,-8.814 -8.077,-17.631 -12.107,-26.451c-4.034,-8.8 -8.093,-17.587 -12.179,-26.363c-1.903,-4.112 -3.807,-8.224 -5.768,-12.461c-1.715,-3.68 -3.43,-7.36 -5.197,-11.152c-3.706,-8.981 -3.706,-8.981 -3.706,-17.315c45.168,-26.28 102.3,-23.856 150,-4.167Z" style="fill:#fbfcfe;fill-rule:nonzero;"/><path d="M812.5,483.333l12.5,0c9.644,19.759 19.212,39.553 28.712,59.382c3.241,6.739 6.503,13.468 9.786,20.186c4.718,9.666 9.362,19.365 13.992,29.074c1.48,2.991 2.96,5.983 4.484,9.064c7.774,16.507 11.778,27.204 5.526,44.793c-6.562,2.442 -13.168,4.763 -19.792,7.031c-3.674,1.305 -7.348,2.61 -11.133,3.955c-10.742,1.514 -10.742,1.514 -19.645,-4.329c-2.562,-2.197 -5.124,-4.394 -7.764,-6.657c-14.372,-1.173 -23.79,-0.403 -37.5,4.167l0,8.333c-19.019,-2.264 -33.22,-7.478 -50,-16.667c10.404,-35.235 26.301,-67.408 42.448,-100.26c2.755,-5.649 5.509,-11.3 8.26,-16.951c6.684,-13.719 13.397,-27.424 20.125,-41.121Z" style="fill:#f7f8fd;fill-rule:nonzero;"/><path d="M1045.833,800c20.044,2.373 35.379,8.273 53.434,17.188c2.617,1.279 5.234,2.558 7.93,3.876c8.293,4.06 16.564,8.163 24.833,12.27c8.318,4.098 16.641,8.188 24.967,12.27c7.526,3.695 15.04,7.414 22.554,11.135c11.977,5.998 11.977,5.998 24.614,9.928l0,12.5c-17.928,8.768 -35.866,17.516 -53.813,26.245c-6.097,2.969 -12.191,5.943 -18.282,8.923c-8.785,4.297 -17.579,8.573 -26.375,12.846c-4.044,1.986 -4.044,1.986 -8.171,4.012c-15.551,7.526 -31.017,13.718 -47.526,18.807c-3.619,-7.262 -7.164,-14.561 -10.677,-21.875c-1.982,-4.061 -3.964,-8.121 -6.006,-12.305c-4.313,-12.109 -4.872,-16.673 0.016,-28.32c1.375,-1.375 2.75,-2.75 4.167,-4.167c1.073,-21.097 1.073,-21.097 -2.49,-41.65c-2.135,-10.634 0.178,-16.134 4.313,-26.058c1.198,-2.943 2.396,-5.887 3.63,-8.919c0.951,-2.213 1.901,-4.426 2.881,-6.706Z" style="fill:#fafbfe;fill-rule:nonzero;"/><path d="M1095.833,600c-17.765,54.887 -36.828,108.964 -58.333,162.5c-19.085,-3.351 -35.181,-7.905 -50,-20.833c-4.948,-14.844 -4.948,-14.844 -8.333,-29.167c-8.319,-8.319 -13.369,-11.957 -24.967,-13.867c-8.366,-2.799 -8.366,-2.799 -13.639,-10.059c-1.354,-2.933 -2.707,-5.865 -4.102,-8.887c-1.396,-2.911 -2.793,-5.822 -4.232,-8.822c-3.06,-8.366 -3.06,-8.366 -3.06,-20.866c21.71,-7.839 43.436,-15.628 65.18,-23.371c7.397,-2.642 14.789,-5.298 22.176,-7.967c10.609,-3.831 21.235,-7.613 31.865,-11.386c3.308,-1.206 6.615,-2.413 10.023,-3.656c23.498,-8.261 23.498,-8.261 37.421,-3.62Z" style="fill:#fafbfe;fill-rule:nonzero;"/><path d="M541.667,600c22.147,2.43 41.279,7.7 62.093,15.511c4.516,1.656 4.516,1.656 9.123,3.345c9.518,3.497 19.02,7.033 28.523,10.571c6.49,2.392 12.982,4.782 19.474,7.17c15.829,5.827 31.644,11.689 47.453,17.57c-3.075,7.52 -6.232,15.006 -9.424,22.477c-2.624,6.258 -2.624,6.258 -5.301,12.643c-6.109,10.713 -6.109,10.713 -13.934,15.607c-8.06,2.137 -8.06,2.137 -21.341,3.439c-0.516,5.07 -1.031,10.141 -1.562,15.365c-3.051,12.723 -5.443,17 -16.162,24.821c-27.68,13.981 -27.68,13.981 -44.775,13.981c-7.74,-21.124 -15.453,-42.258 -23.142,-63.4c-2.62,-7.193 -5.247,-14.383 -7.882,-21.57c-3.783,-10.325 -7.541,-20.66 -11.294,-30.997c-1.185,-3.217 -2.37,-6.433 -3.59,-9.747c-4.617,-12.781 -8.259,-23.086 -8.259,-36.786Z" style="fill:#fbfcfe;fill-rule:nonzero;"/><path d="M2491.667,783.333l254.167,0l0,25l-112.5,0l0,295.833l-25,0l0,-295.833l-116.667,0l0,-25Z" style="fill:#5e73e9;fill-rule:nonzero;"/><path d="M859.294,823.763c12.601,9.235 15.822,19.884 19.873,34.57c3.481,22.876 -3.604,43.697 -16.667,62.5c-16.201,11.959 -33.224,13.419 -52.865,11.979c-15.574,-2.622 -26.88,-5.246 -38.802,-16.146c-10.089,-16.407 -16.795,-31.095 -16.406,-50.521c1.289,-3.953 2.578,-7.906 3.906,-11.979c2.062,-7.477 2.062,-7.477 4.167,-15.104c22.655,-38.231 61.846,-33.742 96.794,-15.299Z" style="fill:#fefbf9;fill-rule:nonzero;"/><rect x="4008.333" y="783.333" width="25" height="320.833" style="fill:#576de8;fill-rule:nonzero;"/><path d="M775,979.167c3.715,8.738 7.345,17.513 10.938,26.302c3.045,7.323 3.045,7.323 6.152,14.795c1.235,4.313 2.471,8.626 3.743,13.07c-4.125,6.188 -4.125,6.188 -8.333,12.5c-0.596,5.237 -0.596,5.237 -1.204,10.579c-2.962,10.254 -2.962,10.254 -12.956,16.081c-6.139,2.014 -6.139,2.014 -12.402,4.069c-4.071,1.407 -8.143,2.814 -12.337,4.264c-11.1,2.507 -11.1,2.507 -23.6,-1.66c-5.924,-8.936 -5.924,-8.936 -11.458,-20.052c-1.869,-3.636 -3.738,-7.272 -5.664,-11.019c-4.172,-11.912 -3.994,-15.706 0.456,-27.262c0.945,-3.54 1.891,-7.079 2.865,-10.726c7.588,-14.024 15.754,-16.255 30.469,-21.826c4.469,-1.746 8.938,-3.491 13.542,-5.29c11.458,-3.825 11.458,-3.825 19.792,-3.825Z" style="fill:#fbf9fa;fill-rule:nonzero;"/><path d="M1000.895,894.727c16.993,12.047 22.547,36.044 28.271,55.273l0,12.5c-6.552,3.726 -13.161,7.354 -19.792,10.938c-3.674,2.03 -7.348,4.061 -11.133,6.152c-10.742,3.743 -10.742,3.743 -18.88,0.716c-2.814,-1.751 -5.629,-3.502 -8.529,-5.306c-4.222,-1.021 -8.443,-2.041 -12.793,-3.092c-12.207,-5.241 -12.207,-5.241 -19.206,-16.992c-1.644,-4.544 -3.287,-9.088 -4.98,-13.77c-1.708,-4.565 -3.416,-9.131 -5.176,-13.835c-1.214,-3.513 -2.428,-7.025 -3.678,-10.645c6.679,-3.396 13.364,-6.779 20.052,-10.156c3.722,-1.885 7.444,-3.771 11.279,-5.713c15.854,-7.615 27.174,-11.24 44.564,-6.071Z" style="fill:#f9f8fa;fill-rule:nonzero;"/><path d="M698.177,911.198c3.352,1.805 6.703,3.609 10.156,5.469c-1.894,5.908 -3.807,11.81 -5.729,17.708c-1.595,4.931 -1.595,4.931 -3.223,9.961c-3.418,9.469 -6.52,17.967 -11.882,26.497c-14.583,4.948 -14.583,4.948 -29.167,8.333c-2.75,1.375 -5.5,2.75 -8.333,4.167c-9.928,-4.15 -9.928,-4.15 -21.354,-10.156c-3.792,-1.971 -7.584,-3.942 -11.491,-5.973c-2.911,-1.552 -5.822,-3.104 -8.822,-4.704c2.618,-25.657 6.751,-48.417 25.521,-67.188c22.935,-6.98 43.622,6.08 64.323,15.885Z" style="fill:#f8f8fc;fill-rule:nonzero;"/><path d="M858.333,983.333c22.634,2.321 43.049,9.06 62.5,20.833c7.739,11.609 8.851,16.975 7.015,30.664c-3.038,11.734 -7.44,20.601 -13.525,31.055c-1.896,3.292 -3.792,6.585 -5.745,9.977c-1.456,2.465 -2.911,4.931 -4.411,7.471c-40.391,-6.685 -40.391,-6.685 -52.734,-19.873c-7.228,-13.501 -9.819,-23.355 -9.505,-38.721c4.583,-14.36 10.106,-27.71 16.406,-41.406Z" style="fill:#fbfafb;fill-rule:nonzero;"/><path d="M687.5,766.667c3.499,8.061 6.965,16.137 10.417,24.219c1.934,4.496 3.867,8.991 5.859,13.623c4.557,12.158 4.557,12.158 4.557,24.658c-8.637,3.832 -17.329,7.542 -26.042,11.198c-4.834,2.079 -9.668,4.157 -14.648,6.299c-13.477,3.337 -13.477,3.337 -22.526,-2.051c-2.514,-2.347 -5.027,-4.694 -7.617,-7.113c-2.938,-0.575 -5.876,-1.149 -8.903,-1.742c-7.764,-2.425 -7.764,-2.425 -12.272,-10.449c-1.004,-3.282 -2.009,-6.563 -3.044,-9.945c-1.058,-3.25 -2.116,-6.499 -3.206,-9.847c-1.932,-10.744 -2.015,-16.377 2.425,-26.351c23.56,-17.512 47.251,-18.535 75,-12.5Z" style="fill:#faf9fb;fill-rule:nonzero;"/><path d="M908.333,662.5c17.44,28.009 17.951,46.934 12.5,79.167c-8.051,3.608 -16.129,7.155 -24.219,10.677c-4.496,1.982 -8.991,3.964 -13.623,6.006c-12.158,4.15 -12.158,4.15 -24.658,-0.016c-10.86,-18.733 -23.386,-41.778 -18.848,-63.802c11.507,-18.16 27.546,-24.591 47.656,-30.322c8.691,-1.709 8.691,-1.709 21.191,-1.709Z" style="fill:#f9f8fb;fill-rule:nonzero;"/><path d="M729.167,662.5c6.603,1.89 13.199,3.805 19.792,5.729c3.674,1.063 7.348,2.127 11.133,3.223c24.717,8.164 24.717,8.164 32.878,19.434c5.69,18.106 -2.93,35.231 -9.896,52.083c-1.509,3.679 -3.019,7.358 -4.574,11.149c-1.155,2.766 -2.31,5.532 -3.499,8.382c-21.319,-2.132 -41.839,-6.621 -58.333,-20.833c-7.23,-13.909 -9.31,-26.06 -8.333,-41.667c5.269,-13.814 12.213,-25.524 20.833,-37.5Z" style="fill:#fbf9fa;fill-rule:nonzero;"/><path d="M1029.167,783.333c-1.987,6.774 -3.986,13.544 -5.99,20.312c-1.112,3.771 -2.224,7.541 -3.369,11.426c-4.821,15.237 -5.546,17.31 -20.329,25.293c-22.02,8.853 -40.501,3.714 -61.719,-5.208c-4.211,-1.977 -8.422,-3.953 -12.76,-5.99c13.663,-43.605 13.663,-43.605 25,-62.5c28.421,-9.474 53.789,4.294 79.167,16.667Z" style="fill:#fcfaf9;fill-rule:nonzero;"/><path d="M895.833,925c12.5,4.167 12.5,4.167 17.367,12.337c1.402,3.319 2.804,6.639 4.248,10.059c1.434,3.298 2.868,6.596 4.346,9.993c3.206,9.277 3.206,9.277 3.206,21.777c-19.202,-3 -36.135,-9.637 -54.167,-16.667c1.234,-14.809 3.347,-20.014 14.062,-30.729c5.414,-3.352 5.414,-3.352 10.938,-6.771Z" style="fill:#fcf0e7;fill-rule:nonzero;"/><path d="M729.167,925c23.958,6.771 23.958,6.771 33.333,20.833l0,16.667c-17.875,6.875 -35.75,13.75 -54.167,20.833c3.186,-15.929 6.151,-26.6 12.76,-40.885c2.264,-4.939 2.264,-4.939 4.574,-9.977c1.155,-2.465 2.31,-4.931 3.499,-7.471Z" style="fill:#fcf0e8;fill-rule:nonzero;"/><path d="M720.833,850c8.69,14.313 8.69,14.313 7.031,25.26c-0.945,2.664 -1.891,5.328 -2.865,8.073c-1.375,4.125 -2.75,8.25 -4.167,12.5c-19.669,-6.428 -39.236,-12.825 -58.333,-20.833c5.817,-11.633 12.517,-12.507 24.479,-17.188c3.685,-1.472 7.369,-2.943 11.165,-4.46c10.189,-3.353 10.189,-3.353 22.689,-3.353Z" style="fill:#fcf0e7;fill-rule:nonzero;"/><path d="M816.667,716.667c8.48,8.48 10.993,13.476 15.104,24.479c1.085,2.825 2.17,5.65 3.288,8.561c2.441,8.626 2.441,8.626 2.441,25.293c-12.5,8.333 -12.5,8.333 -25.781,6.771c-5.801,-1.289 -5.801,-1.289 -11.719,-2.604c-4.639,-11.668 -4.313,-16.256 -0.016,-28.32c1.982,-4.061 3.964,-8.121 6.006,-12.305c1.971,-4.104 3.942,-8.207 5.973,-12.435c1.552,-3.115 3.104,-6.23 4.704,-9.44Z" style="fill:#fcf1e9;fill-rule:nonzero;"/><path d="M912.5,850c21.125,2.726 39.25,11.894 58.333,20.833c-4.167,8.333 -4.167,8.333 -15.511,12.793c-4.592,1.45 -9.185,2.9 -13.916,4.395c-4.603,1.472 -9.206,2.943 -13.949,4.46c-3.561,1.106 -7.122,2.213 -10.791,3.353c-9.621,-16.598 -7.772,-27.088 -4.167,-45.833Z" style="fill:#fdf4ee;fill-rule:nonzero;"/><path d="M925,770.833c-2.349,6.886 -4.799,13.738 -7.292,20.573c-1.354,3.819 -2.707,7.638 -4.102,11.572c-5.273,9.521 -5.273,9.521 -13.623,13.363c-8.317,0.326 -8.317,0.326 -17.432,-6.706c-7.457,-9.514 -9.321,-14.799 -11.719,-26.302c5.873,-2.924 11.784,-5.775 17.708,-8.594c3.287,-1.595 6.574,-3.19 9.961,-4.834c10.914,-3.596 15.866,-2.949 26.497,0.928Z" style="fill:#fdf5ee;fill-rule:nonzero;"/><path d="M708.333,762.5c18.635,5.909 36.298,12.971 54.167,20.833c-1.399,12.944 -2.46,19.184 -11.979,28.385c-8.854,4.948 -8.854,4.948 -21.354,4.948c-3.491,-7.456 -6.959,-14.924 -10.417,-22.396c-2.9,-6.236 -2.9,-6.236 -5.859,-12.598c-4.557,-10.84 -4.557,-10.84 -4.557,-19.173Z" style="fill:#fdf6f0;fill-rule:nonzero;"/><path d="M833.333,966.667c3.877,10.631 4.524,15.584 0.928,26.497c-1.595,3.287 -3.19,6.574 -4.834,9.961c-1.584,3.33 -3.169,6.66 -4.801,10.091c-1.251,2.514 -2.503,5.027 -3.792,7.617l-8.333,0c-2.804,-6.673 -5.576,-13.36 -8.333,-20.052c-1.547,-3.722 -3.094,-7.444 -4.688,-11.279c-3.646,-10.335 -3.646,-10.335 -3.646,-22.835c14.493,-4.831 22.746,-2.951 37.5,0Z" style="fill:#fdf8f4;fill-rule:nonzero;"/></svg>